<mxfile host="65bd71144e">
    <diagram id="eYNNcT4YTHOoke4KIl-2" name="TitlePage">
        <mxGraphModel dx="1254" dy="1169" grid="1" gridSize="10" guides="1" tooltips="1" connect="1" arrows="1" fold="1" page="1" pageScale="1" pageWidth="1200" pageHeight="800" background="#1a1a2e" math="0" shadow="0">
            <root>
                <mxCell id="0"/>
                <mxCell id="1" parent="0"/>
                <!-- 背景コンテナ -->
                <mxCell id="bg-container" value="" style="rounded=0;whiteSpace=wrap;html=1;fillColor=#0f0f1e;strokeColor=#2d2d44;" parent="1" vertex="1">
                    <mxGeometry x="0" y="0" width="1200" height="800" as="geometry"/>
                </mxCell>
                <!-- アニメーション泡の背景エリア（装飾用） -->
                <mxCell id="bubble-bg-1" value="" style="ellipse;whiteSpace=wrap;html=1;fillColor=#4a69bd;strokeColor=none;opacity=20;" parent="1" vertex="1">
                    <mxGeometry x="100" y="120" width="80" height="80" as="geometry"/>
                </mxCell>
                <mxCell id="bubble-bg-2" value="" style="ellipse;whiteSpace=wrap;html=1;fillColor=#f39c12;strokeColor=none;opacity=20;" parent="1" vertex="1">
                    <mxGeometry x="950" y="180" width="120" height="120" as="geometry"/>
                </mxCell>
                <mxCell id="bubble-bg-3" value="" style="ellipse;whiteSpace=wrap;html=1;fillColor=#e74c3c;strokeColor=none;opacity=20;" parent="1" vertex="1">
                    <mxGeometry x="200" y="550" width="100" height="100" as="geometry"/>
                </mxCell>
                <mxCell id="bubble-bg-4" value="" style="ellipse;whiteSpace=wrap;html=1;fillColor=#2ecc71;strokeColor=none;opacity=20;" parent="1" vertex="1">
                    <mxGeometry x="900" y="500" width="60" height="60" as="geometry"/>
                </mxCell>
                <mxCell id="bubble-bg-5" value="" style="ellipse;whiteSpace=wrap;html=1;fillColor=#9b59b6;strokeColor=none;opacity=20;" parent="1" vertex="1">
                    <mxGeometry x="150" y="350" width="90" height="90" as="geometry"/>
                </mxCell>
                <!-- メインコンテンツエリア -->
                <mxCell id="main-content" value="" style="rounded=0;whiteSpace=wrap;html=1;fillColor=none;strokeColor=none;" parent="1" vertex="1">
                    <mxGeometry x="300" y="100" width="600" height="600" as="geometry"/>
                </mxCell>
                <!-- ゲームタイトル「BubblePop」 -->
                <mxCell id="game-title" value="BubblePop" style="text;html=1;strokeColor=none;fillColor=none;align=center;verticalAlign=middle;whiteSpace=wrap;rounded=0;fontSize=72;fontStyle=1;fontColor=#ffffff;fontFamily=Arial Black;shadow=1;" parent="1" vertex="1">
                    <mxGeometry x="350" y="200" width="500" height="100" as="geometry"/>
                </mxCell>
                <!-- サブタイトル -->
                <mxCell id="subtitle" value="タップして泡を割ろう！" style="text;html=1;strokeColor=none;fillColor=none;align=center;verticalAlign=middle;whiteSpace=wrap;rounded=0;fontSize=20;fontColor=#b0b0c0;fontFamily=Helvetica;" parent="1" vertex="1">
                    <mxGeometry x="400" y="300" width="400" height="40" as="geometry"/>
                </mxCell>
                <!-- ゲームスタートボタン -->
                <mxCell id="start-button" value="GAME START" style="rounded=1;whiteSpace=wrap;html=1;fillColor=#4CAF50;strokeColor=#45a049;fontSize=28;fontStyle=1;fontColor=#ffffff;shadow=1;arcSize=50;" parent="1" vertex="1">
                    <mxGeometry x="450" y="400" width="300" height="80" as="geometry"/>
                </mxCell>
                <!-- ゲームスタートボタンのホバーエフェクト表示用（実装時の参考） -->
                <mxCell id="start-button-hover" value="（ホバー時：明るくなる）" style="text;html=1;strokeColor=none;fillColor=none;align=center;verticalAlign=middle;whiteSpace=wrap;rounded=0;fontSize=12;fontColor=#666666;fontStyle=2;" parent="1" vertex="1">
                    <mxGeometry x="450" y="485" width="300" height="20" as="geometry"/>
                </mxCell>
                <!-- バージョン情報 -->
                <mxCell id="version-info" value="Version 1.0.0" style="text;html=1;strokeColor=none;fillColor=none;align=center;verticalAlign=middle;whiteSpace=wrap;rounded=0;fontSize=14;fontColor=#808080;fontFamily=Helvetica;" parent="1" vertex="1">
                    <mxGeometry x="500" y="720" width="200" height="30" as="geometry"/>
                </mxCell>
                <!-- ロゴ・アイコンエリア -->
                <mxCell id="logo-area" value="" style="ellipse;whiteSpace=wrap;html=1;fillColor=#3498db;strokeColor=#2980b9;shadow=1;" parent="1" vertex="1">
                    <mxGeometry x="550" y="80" width="100" height="100" as="geometry"/>
                </mxCell>
                <mxCell id="logo-bubble-1" value="" style="ellipse;whiteSpace=wrap;html=1;fillColor=#ffffff;strokeColor=none;opacity=60;" parent="1" vertex="1">
                    <mxGeometry x="570" y="100" width="30" height="30" as="geometry"/>
                </mxCell>
                <mxCell id="logo-bubble-2" value="" style="ellipse;whiteSpace=wrap;html=1;fillColor=#ffffff;strokeColor=none;opacity=40;" parent="1" vertex="1">
                    <mxGeometry x="600" y="120" width="20" height="20" as="geometry"/>
                </mxCell>
                <!-- フッター装飾ライン -->
                <mxCell id="footer-line" value="" style="rounded=0;whiteSpace=wrap;html=1;fillColor=#2d2d44;strokeColor=none;" parent="1" vertex="1">
                    <mxGeometry x="400" y="700" width="400" height="2" as="geometry"/>
                </mxCell>
                <!-- 画面レイアウトの説明（実装時は表示しない） -->
                <mxCell id="layout-note" value="レイアウト仕様：&#10;- 画面サイズ: 1200x800px（レスポンシブ対応）&#10;- 中央寄せレイアウト&#10;- 背景に浮遊する泡のアニメーション&#10;- ボタンはホバー時に明度上昇" style="text;html=1;strokeColor=#666666;fillColor=#f9f9f9;align=left;verticalAlign=top;whiteSpace=wrap;rounded=1;fontSize=11;fontColor=#333333;fontStyle=0;dashed=1;dashPattern=1 1;" parent="1" vertex="1">
                    <mxGeometry x="20" y="20" width="250" height="80" as="geometry"/>
                </mxCell>
            </root>
        </mxGraphModel>
    </diagram>
</mxfile>